<svg width="24" height="25" viewBox="0 0 24 25" fill="none" xmlns="http://www.w3.org/2000/svg">
<g clip-path="url(#clip0_452_1532)">
<path fill-rule="evenodd" clip-rule="evenodd" d="M12.0085 0.0205078C5.36728 0.0205078 -0.00146484 5.42884 -0.00146484 12.1197C-0.00146484 17.468 3.43848 21.9953 8.21059 23.5976C8.80723 23.7181 9.02577 23.3373 9.02577 23.017C9.02577 22.7365 9.0061 21.775 9.0061 20.7732C5.66523 21.4945 4.96953 19.3309 4.96953 19.3309C4.43263 17.9287 3.63711 17.5683 3.63711 17.5683C2.54364 16.8271 3.71676 16.8271 3.71676 16.8271C4.9297 16.9073 5.56616 18.0691 5.56616 18.0691C6.63972 19.9118 8.36964 19.3912 9.0656 19.0706C9.16491 18.2893 9.48327 17.7485 9.82129 17.4481C7.1567 17.1676 4.35322 16.126 4.35322 11.4785C4.35322 10.1565 4.83014 9.07479 5.58583 8.23355C5.4666 7.93314 5.04893 6.69094 5.7053 5.02837C5.7053 5.02837 6.71937 4.70781 9.00586 6.27032C9.98479 6.00548 10.9943 5.87075 12.0085 5.86961C13.0225 5.86961 14.0563 6.00998 15.0108 6.27032C17.2976 4.70781 18.3116 5.02837 18.3116 5.02837C18.968 6.69094 18.5501 7.93314 18.4309 8.23355C19.2065 9.07479 19.6637 10.1565 19.6637 11.4785C19.6637 16.126 16.8602 17.1475 14.1757 17.4481C14.6133 17.8287 14.9909 18.5497 14.9909 19.6916C14.9909 21.3141 14.9712 22.6163 14.9712 23.0167C14.9712 23.3373 15.19 23.7181 15.7864 23.5979C20.5585 21.995 23.9985 17.468 23.9985 12.1197C24.0181 5.42884 18.6297 0.0205078 12.0085 0.0205078Z" fill="white"/>
</g>
<defs>
<clipPath id="clip0_452_1532">
<rect width="24" height="24" fill="white" transform="translate(-0.00146484 0.0205078)"/>
</clipPath>
</defs>
</svg>
