<svg width="24" height="25" viewBox="0 0 24 25" fill="none" xmlns="http://www.w3.org/2000/svg">
<g clip-path="url(#clip0_452_1531)">
<path d="M11.9989 2.18163C15.205 2.18163 15.5847 2.19569 16.8456 2.25194C18.0175 2.3035 18.6502 2.50037 19.0721 2.66443C19.6299 2.88005 20.033 3.14254 20.4502 3.55972C20.8721 3.98158 21.1299 4.38001 21.3455 4.9378C21.5095 5.35967 21.7064 5.99715 21.758 7.16431C21.8142 8.4299 21.8283 8.80957 21.8283 12.011C21.8283 15.2172 21.8142 15.5969 21.758 16.8578C21.7064 18.0296 21.5095 18.6624 21.3455 19.0843C21.1299 19.6421 20.8674 20.0452 20.4502 20.4624C20.0283 20.8842 19.6299 21.142 19.0721 21.3577C18.6502 21.5217 18.0128 21.7186 16.8456 21.7702C15.58 21.8264 15.2004 21.8405 11.9989 21.8405C8.79274 21.8405 8.41307 21.8264 7.15217 21.7702C5.98033 21.7186 5.34754 21.5217 4.92568 21.3577C4.36788 21.142 3.96477 20.8796 3.54759 20.4624C3.12573 20.0405 2.86793 19.6421 2.65231 19.0843C2.48825 18.6624 2.29138 18.0249 2.23982 16.8578C2.18357 15.5922 2.16951 15.2125 2.16951 12.011C2.16951 8.80489 2.18357 8.42521 2.23982 7.16431C2.29138 5.99246 2.48825 5.35967 2.65231 4.9378C2.86793 4.38001 3.13042 3.97689 3.54759 3.55972C3.96946 3.13785 4.36788 2.88005 4.92568 2.66443C5.34754 2.50037 5.98502 2.3035 7.15217 2.25194C8.41307 2.19569 8.79274 2.18163 11.9989 2.18163ZM11.9989 0.020752C8.74118 0.020752 8.33338 0.0348141 7.05374 0.0910625C5.77877 0.147311 4.90224 0.353555 4.14289 0.64886C3.35073 0.958226 2.68043 1.36603 2.01483 2.03632C1.34454 2.70193 0.936738 3.37222 0.627373 4.1597C0.33207 4.92374 0.125826 5.79559 0.0695779 7.07056C0.0133296 8.3549 -0.000732422 8.7627 -0.000732422 12.0204C-0.000732422 15.2781 0.0133296 15.6859 0.0695779 16.9656C0.125826 18.2406 0.33207 19.1171 0.627373 19.8765C0.936738 20.6686 1.34454 21.3389 2.01483 22.0045C2.68043 22.6701 3.35073 23.0826 4.1382 23.3873C4.90224 23.6826 5.77409 23.8888 7.04905 23.9451C8.3287 24.0013 8.7365 24.0154 11.9942 24.0154C15.2519 24.0154 15.6597 24.0013 16.9394 23.9451C18.2143 23.8888 19.0909 23.6826 19.8502 23.3873C20.6377 23.0826 21.308 22.6701 21.9736 22.0045C22.6392 21.3389 23.0517 20.6686 23.3564 19.8811C23.6517 19.1171 23.8579 18.2453 23.9141 16.9703C23.9704 15.6906 23.9845 15.2828 23.9845 12.0251C23.9845 8.76739 23.9704 8.35959 23.9141 7.07993C23.8579 5.80497 23.6517 4.92843 23.3564 4.16908C23.061 3.37222 22.6532 2.70193 21.983 2.03632C21.3174 1.37071 20.6471 0.958226 19.8596 0.653547C19.0955 0.358243 18.2237 0.151998 16.9487 0.0957499C15.6644 0.0348141 15.2566 0.020752 11.9989 0.020752Z" fill="white"/>
<path d="M11.9991 5.85653C8.59607 5.85653 5.83522 8.61739 5.83522 12.0204C5.83522 15.4235 8.59607 18.1843 11.9991 18.1843C15.4021 18.1843 18.163 15.4235 18.163 12.0204C18.163 8.61739 15.4021 5.85653 11.9991 5.85653ZM11.9991 16.0187C9.79134 16.0187 8.00077 14.2282 8.00077 12.0204C8.00077 9.81267 9.79134 8.02209 11.9991 8.02209C14.2068 8.02209 15.9974 9.81267 15.9974 12.0204C15.9974 14.2282 14.2068 16.0187 11.9991 16.0187Z" fill="white"/>
<path d="M19.8454 5.61275C19.8454 6.4096 19.1986 7.05177 18.4064 7.05177C17.6096 7.05177 16.9674 6.40491 16.9674 5.61275C16.9674 4.81589 17.6143 4.17372 18.4064 4.17372C19.1986 4.17372 19.8454 4.82058 19.8454 5.61275Z" fill="white"/>
</g>
<defs>
<clipPath id="clip0_452_1531">
<rect width="23.9992" height="23.9993" fill="white" transform="translate(-0.000732422 0.020752)"/>
</clipPath>
</defs>
</svg>
