<svg width="24" height="25" viewBox="0 0 24 25" fill="none" xmlns="http://www.w3.org/2000/svg">
<path d="M22.2234 0.0205078H1.77187C0.792187 0.0205078 0 0.793945 0 1.7502V22.2861C0 23.2424 0.792187 24.0205 1.77187 24.0205H22.2234C23.2031 24.0205 24 23.2424 24 22.2908V1.7502C24 0.793945 23.2031 0.0205078 22.2234 0.0205078ZM7.12031 20.4721H3.55781V9.01582H7.12031V20.4721ZM5.33906 7.45488C4.19531 7.45488 3.27188 6.53145 3.27188 5.39238C3.27188 4.25332 4.19531 3.32988 5.33906 3.32988C6.47813 3.32988 7.40156 4.25332 7.40156 5.39238C7.40156 6.52676 6.47813 7.45488 5.33906 7.45488ZM20.4516 20.4721H16.8937V14.9033C16.8937 13.5768 16.8703 11.8658 15.0422 11.8658C13.1906 11.8658 12.9094 13.3143 12.9094 14.8096V20.4721H9.35625V9.01582H12.7687V10.5814H12.8156C13.2891 9.68145 14.4516 8.72988 16.1813 8.72988C19.7859 8.72988 20.4516 11.1018 20.4516 14.1861V20.4721Z" fill="white"/>
</svg>
