<svg width="24" height="25" viewBox="0 0 24 25" fill="none" xmlns="http://www.w3.org/2000/svg">
<path d="M0 24.0201L1.68695 17.8573C0.64598 16.0533 0.0989969 14.0084 0.0999969 11.9114C0.102997 5.35561 5.43783 0.020752 11.9926 0.020752C15.1735 0.0217519 18.1594 1.26072 20.4054 3.50866C22.6503 5.75659 23.8863 8.74451 23.8853 11.9224C23.8823 18.4792 18.5474 23.8141 11.9926 23.8141C10.0027 23.8131 8.04175 23.3141 6.3048 22.3661L0 24.0201ZM6.59679 20.2132C8.27274 21.2082 9.87269 21.8042 11.9886 21.8052C17.4365 21.8052 21.8743 17.3713 21.8773 11.9204C21.8793 6.45857 17.4625 2.0307 11.9966 2.0287C6.54479 2.0287 2.10993 6.46258 2.10793 11.9124C2.10693 14.1374 2.75891 15.8033 3.85388 17.5463L2.85491 21.1942L6.59679 20.2132ZM17.9834 14.7493C17.9094 14.6254 17.7114 14.5514 17.4135 14.4024C17.1165 14.2534 15.6555 13.5344 15.3825 13.4354C15.1105 13.3364 14.9125 13.2864 14.7135 13.5844C14.5155 13.8814 13.9456 14.5514 13.7726 14.7493C13.5996 14.9473 13.4256 14.9723 13.1286 14.8233C12.8316 14.6743 11.8736 14.3614 10.7387 13.3484C9.85569 12.5604 9.25871 11.5874 9.08572 11.2894C8.91272 10.9925 9.06772 10.8315 9.21571 10.6835C9.34971 10.5505 9.5127 10.3365 9.6617 10.1625C9.81269 9.99048 9.86169 9.86648 9.96169 9.66749C10.0607 9.46949 10.0117 9.2955 9.93669 9.1465C9.86169 8.99851 9.26771 7.53555 9.02072 6.94056C8.77873 6.36158 8.53373 6.43958 8.35174 6.43058L7.78176 6.42058C7.58376 6.42058 7.26177 6.49457 6.98978 6.79257C6.71779 7.09056 5.94981 7.80854 5.94981 9.2715C5.94981 10.7345 7.01478 12.1474 7.16278 12.3454C7.31177 12.5434 9.25771 15.5453 12.2386 16.8323C12.9476 17.1383 13.5016 17.3213 13.9326 17.4583C14.6445 17.6843 15.2925 17.6523 15.8045 17.5763C16.3755 17.4913 17.5625 16.8573 17.8104 16.1633C18.0584 15.4683 18.0584 14.8733 17.9834 14.7493Z" fill="white"/>
</svg>
