<svg width="560" height="277" viewBox="0 0 560 277" fill="none" xmlns="http://www.w3.org/2000/svg">
<path opacity="0.1" d="M273.13 6.89044V90.9004C273.13 92.5404 272.48 94.1104 271.32 95.2704L228.57 138.02C227.41 139.18 225.84 139.83 224.2 139.83H148.94C143.43 139.83 140.67 146.49 144.57 150.39L176.01 181.84C178.43 184.25 178.43 188.17 176.01 190.58L135.82 230.77C134.66 231.93 133.09 232.58 131.45 232.58H52.57C50.93 232.58 49.36 233.23 48.2 234.39L9.75 272.83L1 264.09L39.45 225.64C40.61 224.48 41.26 222.91 41.26 221.27V142.39C41.26 140.75 41.91 139.18 43.07 138.02L87.63 93.4604L134.01 47.0804L169.83 11.2604C173.73 7.36044 180.39 10.1204 180.39 15.6304V78.5204C180.39 84.0304 187.05 86.7904 190.95 82.8904L222.39 51.4504C224.8 49.0304 224.8 45.1204 222.39 42.7004L190.95 11.2604C187.05 7.36044 189.81 0.700439 195.32 0.700439H266.95C270.37 0.700439 273.14 3.47044 273.14 6.88044L273.13 6.89044Z" stroke="#EE4426" stroke-width="0.8" stroke-miterlimit="10"/>
<path opacity="0.2" d="M304.93 15.7605V97.0805C304.93 98.6705 304.3 100.19 303.18 101.31L261.8 142.7C260.68 143.82 259.16 144.45 257.57 144.45H184.72C179.39 144.45 176.71 150.9 180.49 154.67L210.93 185.11C213.27 187.45 213.27 191.24 210.93 193.57L172.03 232.47C170.91 233.59 169.39 234.22 167.8 234.22H91.4401C89.8501 234.22 88.3301 234.85 87.2101 235.97L49.9901 273.18L41.5201 264.72L78.7401 227.5C79.8601 226.38 80.4901 224.86 80.4901 223.27V146.91C80.4901 145.32 81.1201 143.8 82.2401 142.68L125.38 99.5405L170.27 54.6505L204.94 19.9805C208.71 16.2105 215.16 18.8805 215.16 24.2105V85.0805C215.16 90.4105 221.61 93.0805 225.38 89.3105L255.82 58.8705C258.16 56.5305 258.16 52.7405 255.82 50.4005L225.38 19.9605C221.61 16.1905 224.28 9.74048 229.61 9.74048H298.95C302.26 9.74048 304.94 12.4205 304.94 15.7205L304.93 15.7605Z" stroke="#EE4426" stroke-width="0.74" stroke-miterlimit="10"/>
<path opacity="0.3" d="M336.72 24.6206V103.251C336.72 104.781 336.11 106.251 335.02 107.341L295.01 147.361C293.92 148.451 292.45 149.051 290.92 149.051H220.48C215.32 149.051 212.74 155.291 216.39 158.931L245.82 188.361C248.08 190.621 248.08 194.281 245.82 196.541L208.2 234.161C207.11 235.251 205.64 235.861 204.11 235.861H130.28C128.75 235.861 127.28 236.471 126.19 237.561L90.2 273.541L82.01 265.361L118 229.371C119.09 228.281 119.7 226.811 119.7 225.281V151.451C119.7 149.921 120.31 148.451 121.39 147.361L163.1 105.651L206.51 62.2406L240.04 28.7206C243.69 25.0706 249.92 27.6606 249.92 32.8106V91.6706C249.92 96.8306 256.15 99.4106 259.8 95.7606L289.23 66.3306C291.49 64.0706 291.49 60.4006 289.23 58.1406L259.8 28.7106C256.15 25.0606 258.74 18.8306 263.89 18.8306H330.94C334.14 18.8306 336.73 21.4206 336.73 24.6206H336.72Z" stroke="#EE4426" stroke-width="0.68" stroke-miterlimit="10"/>
<path opacity="0.4" d="M368.52 33.4904V109.43C368.52 110.91 367.93 112.33 366.88 113.38L328.23 152.03C327.18 153.08 325.76 153.67 324.28 153.67H256.25C251.27 153.67 248.77 159.69 252.3 163.22L280.72 191.65C282.91 193.83 282.91 197.37 280.72 199.55L244.39 235.88C243.34 236.93 241.92 237.52 240.44 237.52H169.13C167.65 237.52 166.23 238.11 165.18 239.16L130.42 273.91L122.51 266.01L157.27 231.25C158.32 230.2 158.91 228.78 158.91 227.3V155.99C158.91 154.51 159.5 153.09 160.55 152.04L200.83 111.76L242.75 69.8404L275.13 37.4604C278.65 33.9404 284.67 36.4304 284.67 41.4104V98.2604C284.67 103.24 290.69 105.74 294.22 102.21L322.64 73.7904C324.82 71.6004 324.82 68.0704 322.64 65.8804L294.22 37.4604C290.7 33.9404 293.19 27.9104 298.17 27.9104H362.92C366.01 27.9104 368.51 30.4104 368.51 33.5004L368.52 33.4904Z" stroke="#EE4426" stroke-width="0.62" stroke-miterlimit="10"/>
<path opacity="0.5" d="M400.32 42.3604V115.61C400.32 117.04 399.75 118.41 398.74 119.42L361.46 156.7C360.45 157.71 359.08 158.28 357.65 158.28H292.03C287.22 158.28 284.82 164.09 288.22 167.49L315.64 194.91C317.75 197.02 317.75 200.43 315.64 202.53L280.6 237.57C279.59 238.58 278.22 239.15 276.79 239.15H208.01C206.58 239.15 205.21 239.72 204.2 240.73L170.68 274.25L163.05 266.63L196.57 233.11C197.58 232.1 198.15 230.73 198.15 229.3V160.52C198.15 159.09 198.72 157.72 199.73 156.71L238.59 117.85L279.03 77.4104L310.26 46.1804C313.66 42.7804 319.46 45.1904 319.46 49.9904V104.82C319.46 109.63 325.27 112.03 328.67 108.63L356.09 81.2104C358.2 79.1004 358.2 75.6904 356.09 73.5804L328.67 46.1604C325.27 42.7604 327.68 36.9504 332.48 36.9504H394.94C397.92 36.9504 400.33 39.3604 400.33 42.3404L400.32 42.3604Z" stroke="#EE4426" stroke-width="0.56" stroke-miterlimit="10"/>
<path opacity="0.6" d="M432.12 51.2303V121.79C432.12 123.17 431.57 124.49 430.6 125.46L394.69 161.37C393.72 162.34 392.4 162.89 391.02 162.89H327.81C323.18 162.89 320.86 168.49 324.14 171.76L350.55 198.17C352.58 200.2 352.58 203.49 350.55 205.51L316.79 239.27C315.82 240.24 314.5 240.79 313.12 240.79H246.86C245.48 240.79 244.16 241.34 243.19 242.31L210.9 274.6L203.55 267.26L235.84 234.97C236.81 234 237.36 232.68 237.36 231.3V165.04C237.36 163.66 237.91 162.34 238.88 161.37L276.31 123.94L315.26 84.9903L345.35 54.9103C348.62 51.6403 354.22 53.9603 354.22 58.5803V111.4C354.22 116.03 359.81 118.35 363.09 115.07L389.5 88.6603C391.53 86.6303 391.53 83.3403 389.5 81.3103L363.09 54.9003C359.82 51.6303 362.14 46.0303 366.76 46.0303H426.93C429.8 46.0303 432.13 48.3603 432.13 51.2203L432.12 51.2303Z" stroke="#EE4426" stroke-width="0.5" stroke-miterlimit="10"/>
<path opacity="0.7" d="M463.91 60.0903V127.96C463.91 129.28 463.38 130.55 462.45 131.49L427.91 166.03C426.97 166.97 425.7 167.49 424.38 167.49H363.58C359.13 167.49 356.9 172.87 360.05 176.02L385.45 201.43C387.4 203.38 387.4 206.54 385.45 208.49L352.98 240.96C352.04 241.9 350.77 242.42 349.45 242.42H285.72C284.4 242.42 283.13 242.95 282.19 243.88L251.13 274.94L244.06 267.88L275.12 236.82C276.06 235.88 276.58 234.61 276.58 233.29V169.56C276.58 168.24 277.11 166.97 278.04 166.03L314.04 130.03L351.51 92.5603L380.45 63.6203C383.6 60.4703 388.98 62.7003 388.98 67.1503V117.96C388.98 122.41 394.36 124.64 397.51 121.49L422.91 96.0903C424.86 94.1403 424.86 90.9703 422.91 89.0203L397.51 63.6203C394.36 60.4703 396.59 55.0903 401.04 55.0903H458.91C461.67 55.0903 463.91 57.3303 463.91 60.0903Z" stroke="#EE4426" stroke-width="0.44" stroke-miterlimit="10"/>
<path opacity="0.8" d="M495.71 68.9604V134.14C495.71 135.41 495.2 136.63 494.3 137.53L461.13 170.7C460.23 171.6 459.01 172.1 457.74 172.1H399.35C395.07 172.1 392.93 177.27 395.96 180.29L420.36 204.69C422.24 206.56 422.24 209.6 420.36 211.47L389.18 242.65C388.28 243.55 387.06 244.06 385.79 244.06H324.58C323.31 244.06 322.09 244.57 321.19 245.47L291.36 275.3L284.57 268.52L314.4 238.69C315.3 237.79 315.81 236.57 315.81 235.3V174.09C315.81 172.82 316.32 171.6 317.21 170.7L351.79 136.12L387.77 100.14L415.56 72.3504C418.58 69.3204 423.75 71.4704 423.75 75.7404V124.54C423.75 128.82 428.92 130.96 431.94 127.93L456.34 103.53C458.21 101.65 458.21 98.6204 456.34 96.7404L431.94 72.3404C428.91 69.3104 431.06 64.1504 435.33 64.1504H490.91C493.56 64.1504 495.71 66.3004 495.71 68.9504V68.9604Z" stroke="#EE4426" stroke-width="0.38" stroke-miterlimit="10"/>
<path opacity="0.9" d="M527.51 77.8305V140.32C527.51 141.54 527.03 142.71 526.16 143.57L494.36 175.38C493.5 176.24 492.33 176.73 491.11 176.73H435.13C431.03 176.73 428.98 181.69 431.88 184.59L455.27 207.98C457.07 209.78 457.07 212.69 455.27 214.48L425.37 244.38C424.51 245.24 423.34 245.73 422.12 245.73H363.44C362.22 245.73 361.05 246.22 360.19 247.08L331.59 275.68L325.08 269.18L353.68 240.58C354.54 239.72 355.03 238.55 355.03 237.33V178.65C355.03 177.43 355.51 176.26 356.38 175.4L389.53 142.25L424.03 107.75L450.68 81.1105C453.58 78.2105 458.53 80.2605 458.53 84.3605V131.14C458.53 135.24 463.49 137.29 466.39 134.39L489.78 111C491.58 109.2 491.58 106.29 489.78 104.49L466.39 81.1005C463.49 78.2005 465.54 73.2405 469.64 73.2405H522.93C525.47 73.2405 527.53 75.3005 527.53 77.8405L527.51 77.8305Z" stroke="#EE4426" stroke-width="0.32" stroke-miterlimit="10"/>
<path d="M559.31 86.6903V146.49C559.31 147.66 558.85 148.78 558.02 149.6L527.59 180.04C526.76 180.87 525.65 181.33 524.48 181.33H470.9C466.98 181.33 465.01 186.07 467.79 188.85L490.17 211.24C491.89 212.96 491.89 215.75 490.17 217.46L461.56 246.07C460.73 246.9 459.62 247.36 458.45 247.36H402.29C401.12 247.36 400 247.82 399.18 248.65L371.81 276.02L365.58 269.8L392.95 242.43C393.78 241.6 394.24 240.49 394.24 239.32V183.16C394.24 181.99 394.7 180.87 395.53 180.05L427.25 148.33L460.26 115.32L485.76 89.8203C488.53 87.0403 493.28 89.0103 493.28 92.9303V137.7C493.28 141.62 498.02 143.59 500.8 140.81L523.18 118.43C524.9 116.71 524.9 113.92 523.18 112.2L500.8 89.8203C498.02 87.0403 499.99 82.3003 503.91 82.3003H554.9C557.33 82.3003 559.3 84.2703 559.3 86.7003L559.31 86.6903Z" stroke="#EE4426" stroke-width="0.27" stroke-miterlimit="10"/>
</svg>
