<svg width="106" height="107" viewBox="0 0 106 107" fill="none" xmlns="http://www.w3.org/2000/svg">
<g clip-path="url(#clip0_361_1809)">
<path d="M67.9558 9.20589L49.2202 30.0139L56.9053 36.9337C56.3225 37.2507 55.7826 37.6704 55.3134 38.1915C53.096 40.6542 53.2948 44.4478 55.7575 46.6652C58.2201 48.8826 62.0137 48.6837 64.2311 46.2211C64.7003 45.7 65.0613 45.1192 65.3157 44.5064L73.0008 51.4261L81.2588 42.2547C81.5758 42.8375 81.9955 43.3774 82.5167 43.8466C84.9792 46.0639 88.773 45.8652 90.9903 43.4026C93.2076 40.94 93.0088 37.1462 90.5462 34.9289C90.0251 34.4597 89.4443 34.0986 88.8315 33.8444L91.7365 30.6181C93.2147 28.9764 93.0821 26.4472 91.4404 24.969L73.6049 8.90984C71.9632 7.43159 69.434 7.56418 67.9558 9.20589Z" stroke="#EE4426" stroke-width="2" stroke-linecap="round" stroke-linejoin="round"/>
</g>
<path d="M72.0232 69.906H61.4681C62.251 68.4108 62.4951 66.6611 62.1089 64.9421C61.5292 62.2973 59.3531 60.1412 56.6991 59.5713C52.1334 58.5948 48.0049 62.0531 48.0049 66.5593C48.0049 67.7495 48.2896 68.8886 48.8286 69.9058H39.3005V37.1524C39.3005 36.5929 38.843 36.1353 38.2836 36.1353H10.3813C6.58852 36.1353 3.50732 39.2174 3.50732 43.0114V98.8243C3.50732 102.618 6.58852 105.7 10.3813 105.7H66.1659C69.9586 105.7 73.04 102.618 73.04 98.8243V70.9231C73.04 70.3535 72.5925 69.906 72.0232 69.906ZM47.649 88.8968C47.2525 90.7888 45.7273 92.3553 43.8459 92.7825C42.0459 93.1895 40.2868 92.6808 38.9954 91.3994C38.355 90.7583 37.2668 91.2162 37.2668 92.1215V103.667H10.3813C7.70698 103.667 5.541 101.5 5.541 98.8247V71.9403H15.0793C14.5505 72.9272 14.2556 74.2086 14.2556 75.2766C14.2556 79.1826 17.489 82.6105 21.7395 82.4071C25.4308 82.2445 28.5526 79.2032 28.5526 75.2766C28.5526 74.0458 28.1864 72.805 27.7289 71.9403H37.2668V83.4855C37.2668 84.3906 38.355 84.8383 38.9954 84.2077C39.9818 83.2312 41.2732 82.692 42.6461 82.692C45.8391 82.692 48.3203 85.6012 47.649 88.8968Z" stroke="#EE4426" stroke-width="2"/>
<defs>
<clipPath id="clip0_361_1809">
<rect width="48" height="48" fill="white" transform="translate(106.007 32.7017) rotate(132)"/>
</clipPath>
</defs>
</svg>
