<svg width="103" height="103" viewBox="0 0 103 103" fill="none" xmlns="http://www.w3.org/2000/svg">
<path d="M61.6323 37.7786C61.7919 37.9596 62.0169 38.0552 62.246 38.0552C62.3872 38.0552 62.5283 38.0186 62.6552 37.9454L100.614 16.0747C100.827 15.9527 100.972 15.7432 101.011 15.5012C101.05 15.2612 100.979 15.0152 100.817 14.8321L89.4022 1.97494C89.2385 1.79394 88.9992 1.69022 88.7578 1.70039C88.5123 1.71056 88.2852 1.82852 88.1359 2.02172L61.5935 36.7496C61.3582 37.0566 61.3746 37.4878 61.6323 37.7786Z" stroke="#EE4426" stroke-width="2"/>
<path d="M99.3399 42.7146L65.431 44.7137C65.0444 44.7361 64.7253 45.0269 64.67 45.4093C64.6148 45.7936 64.8378 46.1618 65.204 46.2919L95.4572 57.0401C95.5472 57.0727 95.6393 57.0869 95.7334 57.0869C95.8623 57.0869 95.9891 57.0584 96.1057 56.9974C96.3082 56.8957 96.4576 56.7147 96.5189 56.4971L100.177 43.7498C100.248 43.4955 100.193 43.223 100.027 43.0176C99.8615 42.8122 99.6058 42.7004 99.3399 42.7146Z" stroke="#EE4426" stroke-width="2"/>
<path d="M54.0776 31.0584C54.1676 31.091 54.2596 31.1052 54.3496 31.1052C54.6258 31.1052 54.8917 30.9649 55.0452 30.7208L70.8356 5.47625C70.9788 5.25051 70.9993 4.96985 70.8929 4.72581C70.7886 4.48176 70.5697 4.30483 70.3078 4.24992L57.9398 1.7159C57.7147 1.67116 57.4836 1.71997 57.2974 1.85216C57.1113 1.98435 56.9906 2.18975 56.9619 2.41346L55.2497 16.3028L53.5375 30.1921C53.4905 30.5724 53.7155 30.9323 54.0776 31.0584Z" stroke="#EE4426" stroke-width="2"/>
<path d="M59.419 71.7864L61.4422 70.4929C63.4939 69.1791 64.2815 66.2933 63.7169 62.1445C63.2157 58.4634 61.6283 53.8733 59.241 49.1836C59.9713 47.6542 59.8752 45.8218 58.9199 44.3677L55.1865 38.6835C54.2312 37.2314 52.5763 36.3976 50.8661 36.4342C47.501 32.3667 43.9006 29.0599 40.6992 27.1055C37.0968 24.905 34.108 24.4352 32.0583 25.747L30.0351 27.0384C28.6707 27.9129 27.5353 29.1189 26.7539 30.5303L11.8042 57.5157C10.9921 58.9841 10.5052 60.5684 10.3354 62.175L1.40613 67.8836C1.19133 68.0199 1.05427 68.2497 1.03382 68.5019C1.02154 68.6483 0.774018 72.1097 3.27586 75.9189C5.7777 79.726 9.07735 80.9157 9.21646 80.9646C9.30647 80.9951 9.39852 81.0113 9.48853 81.0113C9.644 81.0113 9.79742 80.9666 9.93244 80.8812L11.5342 79.8582C12.51 80.6941 14.8502 82.8295 16.1103 85.0686C16.6136 85.9614 17.1147 87.4928 17.6937 89.2642C19.0172 93.3113 20.664 98.3468 23.8511 100.545C25.0499 101.371 26.4818 101.7 27.9486 101.7C29.8735 101.7 31.8599 101.135 33.4637 100.378C35.7241 99.3128 38.2014 97.4011 38.3753 95.2291C38.543 93.1323 36.033 90.4824 33.2673 87.6657L33.8769 87.2772C34.689 86.7586 35.2454 85.9573 35.448 85.0239C35.6464 84.0924 35.4684 83.1406 34.9447 82.3414L30.2786 75.2417L54.8531 73.3137C56.4732 73.1876 58.0525 72.6588 59.419 71.7864ZM31.4344 29.6375C31.6921 28.4396 32.1994 27.5915 32.942 27.1157H32.9441C35.9369 25.2019 42.5791 29.2287 48.9964 36.7453L33.077 40.3043C31.5101 35.999 30.88 32.2142 31.4344 29.6375ZM31.7249 88.4242C34.0119 90.7508 36.8595 93.6468 36.7429 95.0989C36.6488 96.2825 35.0122 97.8485 32.764 98.9081C30.4565 99.9941 26.983 100.724 24.7839 99.207C22.0509 97.3218 20.4983 92.5751 19.2504 88.7618C18.6449 86.9071 18.1212 85.3065 17.5382 84.2734C16.2822 82.0445 14.1547 79.9904 12.9682 78.941L18.8658 75.1705C20.1137 75.5752 21.4311 75.7908 22.7792 75.7908C23.1085 75.7908 23.442 75.7786 23.7754 75.7521L27.3553 75.4715C26.7007 76.8219 25.9663 79.004 26.4184 81.4364C26.7825 83.3989 29.1841 85.8394 31.7249 88.4242ZM23.6465 74.1292C19.6616 74.4424 15.8301 72.5795 13.6555 69.2706C11.483 65.9618 11.3235 61.7601 13.2382 58.3007L22.8896 40.8779C23.2026 44.8639 24.4525 52.1731 29.176 59.3624C33.8892 66.5373 40.1243 70.6434 43.6858 72.5592L23.6465 74.1292ZM39.4718 52.765C37.0477 49.0738 35.0736 45.3215 33.6682 41.8398L45.308 39.2387C45.5269 40.6379 46.2429 43.4078 48.575 46.9587C50.907 50.5075 53.1756 52.283 54.3805 53.0517L47.2125 62.478C44.6657 59.8952 42.0186 56.6412 39.4718 52.765ZM58.1896 50.7373C62.5284 59.5861 63.5451 67.2125 60.5564 69.1242C58.2918 70.5702 53.6277 68.5832 48.3868 63.6311L58.1896 50.7373Z" stroke="#EE4426" stroke-width="2"/>
</svg>
