<svg width="101" height="101" viewBox="0 0 101 101" fill="none" xmlns="http://www.w3.org/2000/svg">
<path fill-rule="evenodd" clip-rule="evenodd" d="M44.4227 18.2079C43.3473 17.9325 42.2198 17.7861 41.0575 17.7861C35.914 17.7861 31.4386 20.6535 29.1526 24.8726C28.4961 24.7763 27.8262 24.7244 27.1427 24.7244C19.6766 24.7244 13.616 30.7709 13.616 38.2156C13.616 39.3748 13.7627 40.5014 14.0388 41.574C10.9535 44.0465 8.97839 47.842 8.97839 52.0939C8.97839 55.6737 10.3782 58.9319 12.6622 61.3467L11.8301 62.3173C10.0422 64.603 8.97839 67.4781 8.97839 70.5996C8.97839 78.0462 15.0389 84.0908 22.5051 84.0908C22.8256 84.0908 23.1461 84.0793 23.4627 84.0581C25.3104 90.7402 31.454 95.6564 38.7387 95.6564C41.9958 95.6564 45.0251 94.6743 47.5447 92.9894C47.6413 93.1665 47.7668 93.3321 47.9231 93.4765C50.0817 95.485 53.3524 95.7142 55.7696 94.0273C56.1288 93.7866 56.4724 93.5517 56.7717 93.3475C57.5478 93.725 58.3472 94.0562 59.1639 94.3354L59.3666 95.5043C59.8705 98.4275 62.3631 100.598 65.3383 100.7C65.377 100.702 65.4175 100.702 65.4561 100.702C65.9658 100.686 66.4755 100.686 66.9833 100.671C66.9872 100.671 66.991 100.671 66.991 100.671C69.9393 100.569 72.4145 98.4255 72.93 95.5313C73.0169 95.1076 73.0941 94.6955 73.1597 94.3393C73.6231 94.1795 74.0807 94.0042 74.5306 93.8155L74.5325 93.8136C75.1754 93.542 75.9129 93.621 76.4825 94.0215C76.5481 94.0678 76.6157 94.1101 76.6872 94.1467C79.1006 95.7354 82.3017 95.4754 84.4275 93.4977C84.4564 93.4708 84.4854 93.4419 84.5124 93.413C84.8619 93.0452 85.2229 92.6851 85.5705 92.3154L85.5762 92.3115C87.5147 90.2395 87.7985 87.1373 86.3099 84.7591C86.2578 84.6358 86.1902 84.5222 86.113 84.4124C85.723 83.8617 85.6361 83.155 85.8774 82.5272L86.0473 82.144C86.308 81.4989 86.8853 81.0329 87.5726 80.9154C87.6518 80.9019 87.7309 80.8827 87.8062 80.8596C90.6386 80.28 92.718 77.8401 92.8184 74.942C92.8204 74.9015 92.8203 74.8611 92.8203 74.8226C92.8068 74.3142 92.8049 73.8058 92.7895 73.2994V73.2917C92.691 70.459 90.6946 68.0654 87.9549 67.4338C87.8314 67.3856 87.7039 67.351 87.5707 67.3279C86.9046 67.2143 86.3408 66.7752 86.0667 66.1609L85.9141 65.77C85.6419 65.1307 85.7211 64.3951 86.1227 63.827C86.169 63.7596 86.2115 63.6922 86.2482 63.6209C87.841 61.2158 87.5803 58.0211 85.5975 55.9009C85.5705 55.872 85.5415 55.8451 85.5126 55.8162C85.1438 55.4677 84.7827 55.1095 84.412 54.761L84.4082 54.7552C82.3307 52.8218 79.2222 52.5387 76.8358 54.0234C76.7123 54.0754 76.5984 54.1428 76.4883 54.2198C75.9207 54.6184 75.187 54.7012 74.546 54.4355C74.0903 54.2352 73.6308 54.0562 73.1655 53.8963L72.9647 52.7274C72.6906 51.1465 71.8372 49.7869 70.6401 48.8549L71.4993 46.8137C71.7503 46.1955 72.2735 45.7295 72.9184 45.5524C72.9319 45.5485 72.9454 45.5447 72.9589 45.5409C79.3458 43.6344 84.8387 38.9589 87.5321 32.3211C92.2373 20.7189 86.615 7.48767 74.9823 2.79481C63.3516 -1.89998 50.0856 3.70756 45.3784 15.3097C44.9904 16.2668 44.6737 17.2335 44.4227 18.2079ZM50.4099 90.5361C50.4601 90.5746 50.5103 90.617 50.5567 90.6613C51.385 91.4315 52.6419 91.5162 53.5667 90.8653C53.5783 90.8557 53.5898 90.848 53.6034 90.8403C54.6151 90.1625 55.5148 89.5289 55.5148 89.5289C56.123 89.0995 56.9223 89.0591 57.571 89.4211C58.7777 90.0951 60.0578 90.6246 61.3881 90.9982L61.3919 91.0002C62.1082 91.2024 62.645 91.7993 62.7705 92.5272L63.1721 94.8496C63.3632 95.9587 64.2957 96.7868 65.4214 96.8484C65.9021 96.8369 66.3809 96.8368 66.8597 96.8214C67.9912 96.7829 68.9391 95.9568 69.1303 94.8438C69.1342 94.8265 69.138 94.8072 69.1419 94.7899C69.3272 93.8732 69.4759 93.0202 69.5338 92.6832V92.6812C69.6767 91.859 70.2771 91.1908 71.0765 90.9597C71.7406 90.7672 72.3913 90.5361 73.0246 90.2684C74.8182 89.5097 76.8667 89.6887 78.4789 90.7209L78.7473 90.8885C79.6702 91.5374 80.9155 91.4642 81.7553 90.7151C82.0874 90.3685 82.4253 90.0296 82.7535 89.6811C83.5258 88.855 83.6108 87.6033 82.9582 86.6809C82.8829 86.5769 82.8211 86.4652 82.7709 86.3496C81.7611 84.7321 81.5989 82.7178 82.35 80.952C82.377 80.8904 82.406 80.8326 82.4369 80.7729C82.4504 80.7498 82.4581 80.7248 82.4678 80.6998C83.1976 78.8973 84.7731 77.5782 86.644 77.1739L86.9529 77.1026C88.0649 76.91 88.8952 75.9799 88.9589 74.8592C88.9454 74.3797 88.9454 73.9002 88.9299 73.4227C88.8913 72.2942 88.063 71.3506 86.9471 71.158C86.8216 71.1368 86.698 71.1022 86.5802 71.056C84.719 70.6246 83.1764 69.3152 82.4562 67.5359C82.4311 67.4742 82.4099 67.4107 82.3925 67.3471C82.3848 67.3221 82.3693 67.299 82.3596 67.2739C81.5989 65.485 81.7785 63.4418 82.8134 61.8358L82.9814 61.5663C83.632 60.6477 83.5586 59.4037 82.8076 58.566C82.4601 58.2348 82.1203 57.8978 81.7708 57.5705C80.9425 56.8002 79.6875 56.7155 78.7627 57.3664C78.6584 57.4415 78.5465 57.5031 78.4306 57.5531C76.8088 58.5603 74.7912 58.724 73.0188 57.973C73.0111 57.9691 73.0033 57.9672 72.9956 57.9633C72.3739 57.6899 71.731 57.4627 71.0803 57.2739C70.2771 57.0409 69.6767 56.3727 69.5338 55.5505L69.1593 53.3822C68.9681 52.273 68.0336 51.4469 66.91 51.3833C66.4292 51.3949 65.9485 51.3949 65.4696 51.4103C64.3382 51.4507 63.3922 52.2749 63.1991 53.3879C63.1972 53.4014 63.1933 53.4168 63.1914 53.4322C62.9635 54.5876 62.7821 55.6391 62.7705 55.7007C62.645 56.4344 62.1082 57.0294 61.3919 57.2335H61.3881C60.0578 57.609 58.7777 58.1367 57.571 58.8106C56.9223 59.1727 56.123 59.1322 55.5148 58.7047L54.5842 58.05V79.8524C54.5842 83.9695 53.0029 87.7227 50.4099 90.5361ZM27.3609 83.6171C28.9441 88.3716 33.4427 91.8051 38.7387 91.8051C45.3534 91.8051 50.7227 86.4498 50.7227 79.8524V31.2774C50.7227 25.9568 46.3921 21.6374 41.0575 21.6374C37.252 21.6374 33.9563 23.8366 32.3808 27.0274C32.348 27.141 31.9579 27.9787 31.9579 27.9787C31.1161 29.9486 30.9733 32.1266 31.4946 34.1562C31.7591 35.1865 31.1355 36.236 30.1044 36.4998C29.0715 36.7636 28.0193 36.1416 27.7547 35.1133C27.2083 32.9855 27.1852 30.7421 27.7026 28.5911C27.5173 28.5815 27.33 28.5757 27.1427 28.5757C21.8081 28.5757 17.4775 32.8949 17.4775 38.2156C17.4775 39.421 17.6995 40.5745 18.1049 41.6394C18.4312 42.4944 18.1108 43.4592 17.3365 43.9502C14.6354 45.6602 12.8399 48.67 12.8399 52.0939C12.8399 54.7686 13.9346 57.1912 15.7012 58.9377C17.5682 57.8517 19.7171 57.1989 22.0128 57.118C22.5379 55.5139 23.3778 53.983 24.5343 52.6177C24.6772 52.4482 24.8432 52.3115 25.0228 52.2056C24.0033 50.9655 23.1866 49.5462 22.6441 47.9884C22.2946 46.9851 22.8275 45.8874 23.8334 45.537C24.8393 45.1884 25.9418 45.7199 26.2913 46.7232C27.3319 49.708 29.7608 51.9803 32.6163 53.0394C33.6145 53.4091 34.1242 54.5183 33.7535 55.5158C33.3809 56.5114 32.2688 57.0197 31.2706 56.6481C30.0098 56.1821 28.8147 55.5389 27.7239 54.7474C27.6582 54.8707 27.579 54.9921 27.4844 55.1037C25.3857 57.5802 24.7582 60.8075 25.5074 63.7307C25.7719 64.759 25.1502 65.8105 24.1173 66.0743C23.0843 66.3381 22.0321 65.7161 21.7676 64.6858C21.4606 63.4919 21.3177 62.2595 21.3447 61.029C19.3387 61.2678 17.5199 62.1228 16.0835 63.3976L15.9657 63.5035C14.0446 65.2655 12.8399 67.7939 12.8399 70.5996C12.8399 75.9202 17.1705 80.2395 22.5051 80.2395C22.9047 80.2395 23.3006 80.2145 23.6886 80.1683C24.1752 77.0333 25.7642 74.0562 28.3977 71.8706C29.2163 71.1889 30.4346 71.3006 31.1162 72.117C31.7977 72.9335 31.6876 74.1486 30.869 74.8284C28.3706 76.9042 27.0867 79.9545 27.3165 82.9624C27.3338 83.1819 27.2894 83.4014 27.3609 83.6171ZM66.1647 64.551C60.8726 64.551 56.5748 68.8376 56.5748 74.1159C56.5748 79.3941 60.8726 83.6807 66.1647 83.6807C71.4588 83.6807 75.7546 79.3941 75.7546 74.1159C75.7546 68.8376 71.4588 64.551 66.1647 64.551ZM66.1647 68.4024C69.3272 68.4024 71.8932 70.9635 71.8932 74.1159C71.8932 77.2701 69.3272 79.8294 66.1647 79.8294C63.0041 79.8294 60.4362 77.2701 60.4362 74.1159C60.4362 70.9635 63.0041 68.4024 66.1647 68.4024ZM64.1065 34.9111L56.2446 54.2892C56.2214 54.345 56.1983 54.3989 56.1712 54.4509C56.4454 54.6454 56.7775 54.8803 56.7775 54.8803C57.5556 54.5029 58.3549 54.1736 59.1735 53.8924C59.2372 53.5381 59.3145 53.128 59.3994 52.7062C59.913 49.8081 62.3882 47.6629 65.3383 47.5608C65.3422 47.5608 65.3461 47.5608 65.3461 47.5608C65.8538 47.5454 66.3636 47.5455 66.8733 47.532H67.0084C67.3444 46.7232 67.6571 45.9799 67.9217 45.3637C68.6206 43.646 70.0763 42.3481 71.8642 41.8474C77.1621 40.2626 81.7187 36.3823 83.9525 30.8768C87.8584 21.2446 83.1918 10.2606 73.5343 6.36495C63.8787 2.46739 52.8658 7.1237 48.958 16.754C48.5622 17.7303 48.2552 18.722 48.0313 19.7157C51.9564 22.0785 54.5842 26.3746 54.5842 31.2774V48.1135L60.527 33.4669C56.7736 30.9885 55.1557 26.1358 56.9088 21.8127C57.3084 20.8287 58.434 20.3511 59.4226 20.7497C60.4092 21.1483 60.888 22.2729 60.4883 23.2569C59.2855 26.2206 60.722 29.5982 63.6914 30.7979C66.6628 31.9976 70.0493 30.5649 71.2522 27.6013C71.6518 26.6173 72.7774 26.1397 73.766 26.5383C74.7545 26.9369 75.2314 28.0615 74.8317 29.0455C73.0786 33.3687 68.5318 35.7334 64.1065 34.9111Z" fill="#EE4426"/>
</svg>
