<svg width="105" height="40" viewBox="0 0 105 40" fill="none" xmlns="http://www.w3.org/2000/svg">
<g clip-path="url(#clip0_278_10396)">
<path d="M104.502 3.7037V26.7497C104.502 27.7331 104.112 28.6718 103.416 29.3678L93.8697 38.9144C93.1737 39.6105 92.235 40 91.2516 40H68.2056C67.484 40 66.8072 39.7957 66.2388 39.4317L71.3793 34.2912C71.5326 34.1379 71.7433 34.0485 71.9668 34.0485H82.516C82.7331 34.0485 82.9438 33.9591 83.1035 33.8059L88.4802 28.4291C88.8059 28.1034 88.8059 27.5798 88.4802 27.2605L84.272 23.0524C83.7484 22.5287 84.1188 21.6411 84.8595 21.6411H94.9234C95.1405 21.6411 95.3512 21.5517 95.5109 21.3985L101.232 15.6769C101.386 15.5236 101.475 15.3129 101.475 15.0894V3.86335C101.475 3.40358 101.105 3.03321 100.645 3.03321H91.06C90.3257 3.03321 89.9553 3.9272 90.4725 4.44444L94.6807 8.65262C95.0064 8.97829 95.0064 9.50192 94.6807 9.8212L90.4725 14.0294C89.9489 14.553 89.0613 14.1826 89.0613 13.4419V5.03193C89.0613 4.29757 88.1673 3.9272 87.6501 4.44444L82.8608 9.23372L76.6603 15.4342L70.7024 21.3921C70.5492 21.5453 70.4598 21.7561 70.4598 21.9796V32.5287C70.4598 32.7458 70.3704 32.9566 70.2171 33.1162L65.0766 38.2567C64.719 37.6884 64.5083 37.0115 64.5083 36.2899V13.2503C64.5083 12.2669 64.8978 11.3282 65.5939 10.6322L75.1405 1.08557C75.8365 0.389527 76.7752 0 77.7586 0H100.805C102.848 0 104.508 1.66028 104.508 3.7037H104.502Z" fill="#EE4426"/>
<path d="M56.9669 22.6181V29.5594H54.9554C54.5723 29.5594 54.253 29.4061 53.9912 29.0996C53.7294 28.7931 53.64 28.4483 53.7358 28.0651L54.5531 23.9847L51.6157 23.4419L50.6068 28.3653C50.5365 28.7292 50.3641 29.0166 50.0895 29.2337C49.8149 29.4508 49.502 29.5594 49.1381 29.5594H48.3462C47.9822 29.5594 47.6757 29.4253 47.4203 29.1635C47.1649 28.9017 47.0372 28.5888 47.0372 28.2248V23.3525H44.0423V28.1929C44.0423 28.5568 43.9146 28.8761 43.6591 29.1443C43.4037 29.4189 43.0972 29.553 42.7332 29.553H35.4663C36.0665 28.6973 36.3667 27.8225 36.3667 26.9157V25.9642C36.3667 25.2746 36.2326 24.6296 35.9708 24.0166C35.7089 23.41 35.3513 22.8799 34.898 22.4266C34.4446 21.9732 33.9146 21.6156 33.3079 21.3538C32.7013 21.092 32.0499 20.9579 31.3603 20.9579H30.9261C30.2747 20.9579 29.6425 21.092 29.0359 21.3538C28.4292 21.6156 27.8928 21.9796 27.4331 22.4393C26.9733 22.8991 26.5965 23.4483 26.3156 24.0741C26.0346 24.6999 25.8941 25.3768 25.8941 26.0983V26.9157C25.8941 27.8416 26.1815 28.7229 26.7626 29.553H22.4075C22.0052 29.553 21.6796 29.4061 21.4305 29.106C21.1751 28.8059 21.0921 28.4674 21.1879 28.0843L22.0052 23.9783L19.0678 23.461L18.0589 28.3589C17.9886 28.7229 17.8162 29.0102 17.5416 29.2273C17.267 29.4444 16.9542 29.553 16.5902 29.553H11.2837C10.958 29.553 10.6579 29.4508 10.3833 29.2401C10.1087 29.0294 9.97458 28.7612 9.97458 28.4355V23.3461H6.97969V32.7586C6.97969 33.4674 6.77535 34.1124 6.36667 34.7063C5.95798 35.2937 5.40881 35.7024 4.71916 35.9195L0.79834 37.1967L1.72427 40L5.47906 38.7229C6.1304 38.5057 6.73065 38.1992 7.27344 37.8097C7.81622 37.4202 8.28876 36.9604 8.69106 36.4368C9.08697 35.9132 9.39987 35.3321 9.62976 34.7063C9.85326 34.0805 9.9682 33.4227 9.9682 32.7331V32.2414C10.1662 32.5862 10.4407 32.8097 10.7856 32.9247C11.1304 33.0332 11.4561 33.0907 11.7626 33.0907H16.3092C16.6157 33.0907 16.9286 33.0524 17.2479 32.9694C17.5672 32.8863 17.8673 32.7714 18.1483 32.6181C18.4292 32.4649 18.6847 32.2925 18.9209 32.1009C19.1572 31.9093 19.336 31.705 19.4637 31.4879C19.6617 31.9221 20.0512 32.2989 20.6323 32.6181C21.2134 32.9374 21.7945 33.0971 22.3756 33.0971H27.4075C27.7332 33.0971 28.0333 33.0843 28.3079 33.0588C28.5825 33.0332 28.8507 32.9757 29.1253 32.8927C29.3999 32.8097 29.6872 32.7012 29.9937 32.5543C30.3003 32.4074 30.6642 32.2158 31.0793 31.986C31.4944 32.2222 31.8584 32.4138 32.1649 32.5543C32.4714 32.7012 32.7651 32.8097 33.0461 32.8927C33.3271 32.9757 33.6017 33.0268 33.8762 33.0588C34.1508 33.0843 34.4446 33.0971 34.7766 33.0971H42.1777C42.829 33.0971 43.442 32.963 44.0167 32.7012C44.5851 32.4393 45.0895 32.037 45.5301 31.4879C45.9452 32.0307 46.4433 32.433 47.0116 32.7012C47.5799 32.963 48.193 33.0971 48.8507 33.0971C49.451 33.0971 50.0193 32.9693 50.5621 32.7139C51.1049 32.4585 51.5838 32.0434 52.0052 31.4623C52.3692 32.0434 52.8035 32.4585 53.3143 32.7139C53.8188 32.9693 54.3679 33.0971 54.949 33.0971H56.6349C57.0882 33.0971 57.5161 33.0141 57.9248 32.8416C58.3335 32.6692 58.6847 32.433 58.9848 32.1328C59.2849 31.8327 59.5212 31.4815 59.6936 31.0728C59.866 30.6641 59.949 30.2363 59.949 29.7829V22.6245H56.9542L56.9669 22.6181ZM33.3718 27.0498C33.3718 27.433 33.161 27.7969 32.7332 28.1354C32.3054 28.4802 31.7562 28.7803 31.0857 29.0358C30.396 28.7803 29.8405 28.4802 29.4126 28.1354C28.9848 27.7906 28.7741 27.4266 28.7741 27.0498V26.3665C28.7741 25.8046 28.972 25.3257 29.3743 24.9361C29.7702 24.5466 30.2556 24.3487 30.8175 24.3487H31.3347C31.8967 24.3487 32.3756 24.5466 32.7779 24.9361C33.1738 25.3257 33.3782 25.8046 33.3782 26.3665V27.0498H33.3718Z" fill="#EBEBEB"/>
<path d="M33.0588 15.4342V17.7203C33.0588 17.8161 33.0205 17.9119 32.9502 17.9821L32.0051 18.9272C31.9349 18.9975 31.8455 19.0358 31.7433 19.0358H29.4572C29.2529 19.0358 29.0933 18.8697 29.0933 18.6718V16.3857C29.0933 16.2899 29.1316 16.1941 29.2018 16.1239L30.1469 15.1788C30.2171 15.1086 30.3065 15.0703 30.4087 15.0703H32.6948C32.8991 15.0703 33.0588 15.2363 33.0588 15.4342Z" fill="#EBEBEB"/>
<path d="M19.47 36.4304V38.6973C19.47 38.7931 19.4316 38.8889 19.3614 38.9527L18.4227 39.8914C18.3525 39.9617 18.2631 40 18.1673 40H12.3371C12.1328 40 11.9731 39.834 11.9731 39.636V37.3691C11.9731 37.2733 12.0115 37.1775 12.0817 37.1137L13.0204 36.175C13.0906 36.1047 13.18 36.0664 13.2758 36.0664H19.106C19.3103 36.0664 19.47 36.2324 19.47 36.4304Z" fill="#EBEBEB"/>
</g>
<defs>
<clipPath id="clip0_278_10396">
<rect width="103.697" height="40" fill="white" transform="translate(0.804688)"/>
</clipPath>
</defs>
</svg>
